<?xml version="1.0" encoding="UTF-8" standalone="no"?>
<svg width="144px" height="33px" viewBox="0 0 144 33" version="1.1" xmlns="http://www.w3.org/2000/svg" xmlns:xlink="http://www.w3.org/1999/xlink" xmlns:sketch="http://www.bohemiancoding.com/sketch/ns">
    <!-- Generator: Sketch 3.3.1 (12005) - http://www.bohemiancoding.com/sketch -->
    <title>logo-rubycasts</title>
    <desc>Created with Sketch.</desc>
    <defs>
        <filter x="-50%" y="-50%" width="200%" height="200%" filterUnits="objectBoundingBox" id="filter-1">
            <feOffset dx="0" dy="1" in="SourceAlpha" result="shadowOffsetOuter1"></feOffset>
            <feGaussianBlur stdDeviation="0.5" in="shadowOffsetOuter1" result="shadowBlurOuter1"></feGaussianBlur>
            <feColorMatrix values="0 0 0 0 0   0 0 0 0 0   0 0 0 0 0  0 0 0 0.7 0" in="shadowBlurOuter1" type="matrix" result="shadowMatrixOuter1"></feColorMatrix>
            <feMerge>
                <feMergeNode in="shadowMatrixOuter1"></feMergeNode>
                <feMergeNode in="SourceGraphic"></feMergeNode>
            </feMerge>
        </filter>
        <filter x="-50%" y="-50%" width="200%" height="200%" filterUnits="objectBoundingBox" id="filter-2">
            <feOffset dx="0" dy="1" in="SourceAlpha" result="shadowOffsetOuter1"></feOffset>
            <feGaussianBlur stdDeviation="0.5" in="shadowOffsetOuter1" result="shadowBlurOuter1"></feGaussianBlur>
            <feColorMatrix values="0 0 0 0 0   0 0 0 0 0   0 0 0 0 0  0 0 0 0.7 0" in="shadowBlurOuter1" type="matrix" result="shadowMatrixOuter1"></feColorMatrix>
            <feMerge>
                <feMergeNode in="shadowMatrixOuter1"></feMergeNode>
                <feMergeNode in="SourceGraphic"></feMergeNode>
            </feMerge>
        </filter>
    </defs>
    <g id="Page-1" stroke="none" stroke-width="1" fill="none" fill-rule="evenodd" sketch:type="MSPage">
        <g id="logo-rubycasts" sketch:type="MSLayerGroup">
            <g id="favicon-copy" sketch:type="MSShapeGroup">
                <rect id="bg-copy" stroke="#000000" fill="#000000" x="0" y="0" width="33.5818879" height="32.9580317" rx="4"></rect>
                <g id="left-copy" transform="translate(1.483537, 0.855125)" stroke="#292929" fill="#FFFFFF">
                    <rect id="Rectangle-2" x="0" y="0.468490305" width="3.77627655" height="3.70612405" rx="1"></rect>
                    <rect id="Rectangle-2-Copy" x="0" y="5.76295323" width="3.77627655" height="3.70612405" rx="1"></rect>
                    <rect id="Rectangle-2-Copy-2" x="0" y="11.0574162" width="3.77627655" height="3.70612405" rx="1"></rect>
                    <rect id="Rectangle-2-Copy-3" x="0" y="16.3518791" width="3.77627655" height="3.70612405" rx="1"></rect>
                    <rect id="Rectangle-2-Copy-4" x="0" y="21.646342" width="3.77627655" height="3.70612405" rx="1"></rect>
                    <rect id="Rectangle-2-Copy-5" x="0" y="26.9408049" width="3.77627655" height="3.70612405" rx="1"></rect>
                </g>
                <g id="right-copy" transform="translate(28.187207, 1.455977)" stroke="#292929" fill="#FFFFFF">
                    <rect id="Rectangle-2" x="0" y="5.05981222e-14" width="3.77627655" height="3.70612405" rx="1"></rect>
                    <rect id="Rectangle-2-Copy" x="0" y="5.29446292" width="3.77627655" height="3.70612405" rx="1"></rect>
                    <rect id="Rectangle-2-Copy-2" x="0" y="10.5889258" width="3.77627655" height="3.70612405" rx="1"></rect>
                    <rect id="Rectangle-2-Copy-3" x="0" y="15.8833888" width="3.77627655" height="3.70612405" rx="1"></rect>
                    <rect id="Rectangle-2-Copy-4" x="0" y="21.1778517" width="3.77627655" height="3.70612405" rx="1"></rect>
                    <rect id="Rectangle-2-Copy-5" x="0" y="26.4723146" width="3.77627655" height="3.70612405" rx="1"></rect>
                </g>
                <g id="ruby-copy" transform="translate(6.203883, 6.485717)">
                    <path d="M10.587061,20.780767 C16.4341334,20.780767 21.1741221,16.1288338 21.1741221,10.3903835 C21.1741221,4.65193314 16.4341334,0 10.587061,0 C4.73998868,0 0,4.65193314 0,10.3903835 C0,16.1288338 4.73998868,20.780767 10.587061,20.780767 Z" id="Oval-1" stroke="#282828" fill="#FFFFFF"></path>
                    <g id="ruby" transform="translate(11.501777, 10.504837) rotate(-90.000000) translate(-11.501777, -10.504837) translate(2.405393, 3.065338)">
                        <path d="M9.098168,14.8677864 L18.1414741,5.15567078 L15.995731,2.05235693 L12.5013863,0.0818481834 L5.69498891,0.0818481834 L2.20080086,2.05235693 L0.0550969563,5.15563186 L9.098168,14.8677864 Z" id="Fill-18" fill="#000000"></path>
                        <path d="M5.4615703,7.94395544 L9.09926497,13.408626 L12.7369204,7.94395544 L5.4615703,7.94395544" id="Fill-19" fill="#D10607"></path>
                        <path d="M6.20981838,4.79132828 L5.53992499,6.8996185 L12.653316,6.8996185 L11.9833834,4.79132828 L6.20981838,4.79132828" id="Fill-20" fill="#FE9494"></path>
                        <path d="M2.71899958,3.11771138 L1.46548131,4.93054985 L4.52605453,6.65725542 L5.20503706,4.52035802 L2.71899958,3.11771138" id="Fill-21" fill="#D10607"></path>
                        <path d="M12.9836202,4.52035802 L13.6626027,6.65725542 L16.7232151,4.93054985 L15.4696577,3.11771138 L12.9836202,4.52035802" id="Fill-22" fill="#900000"></path>
                        <path d="M3.62023518,2.41891795 L5.97020975,3.74477282 L12.237997,3.74477282 L14.5879324,2.41891795 L12.2381145,1.09380258 L5.96997469,1.09380258 L3.62023518,2.41891795" id="Fill-23" fill="#FC1918"></path>
                    </g>
                </g>
            </g>
            <path d="M37.4736328,26.6861116 L37.4736328,11.7764737 L41.9781151,11.7764737 L41.9781151,12.9875247 C42.6683576,12.0354358 43.4751225,11.5593985 44.3984339,11.5593985 C44.6583954,11.5593985 45.0662599,11.5974815 45.6220396,11.6736486 L45.6220396,14.9183514 C44.78837,14.8421843 44.2012245,14.8041013 43.8605853,14.8041013 C43.2420563,14.8041013 42.7736845,14.965954 42.4554558,15.2896642 C42.1372271,15.6133745 41.9781151,16.0760827 41.9781151,16.6778029 L41.9781151,26.6861116 L37.4736328,26.6861116 Z M46.9801074,23.7955841 L46.9801074,11.7764737 L51.5114821,11.7764737 L51.5114821,22.8587333 C51.5114821,23.6965716 51.7176554,24.1154844 52.130008,24.1154844 C52.5333965,24.1154844 53.0040094,23.8336703 53.5418607,23.2700337 L53.5418607,11.7764737 L58.0732354,11.7764737 L58.0732354,26.6861116 L53.5418607,26.6861116 L53.5418607,25.3950855 C53.0846871,25.8673216 52.5513258,26.2557681 51.941761,26.5604365 C51.3321962,26.865105 50.7136764,27.0174369 50.0861832,27.0174369 C49.1628718,27.0174369 48.4143733,26.6842108 47.8406652,26.0177486 C47.2669571,25.3512863 46.9801074,24.6105722 46.9801074,23.7955841 L46.9801074,23.7955841 Z M60.6145702,26.6861116 L60.6145702,6.12109375 L65.1459449,6.12109375 L65.1459449,12.7818745 C65.5134767,12.3781888 65.9504743,12.0525793 66.456951,11.8050362 C66.9634276,11.5574931 67.4990299,11.4337234 68.0637738,11.4337234 C69.0946555,11.4337234 69.9596867,11.7955117 70.6588934,12.5190993 C71.3581001,13.2426869 71.7076982,14.0767043 71.7076982,15.0211765 L71.7076982,23.8298592 C71.7076982,24.6829308 71.3715462,25.4274532 70.699232,26.0634486 C70.0269179,26.699444 69.1932609,27.0174369 68.1982359,27.0174369 C67.5976353,27.0174369 67.0284178,26.8879548 66.4905665,26.6289866 C65.9527152,26.3700184 65.5045125,26.0158466 65.1459449,25.5664607 L65.1459449,26.6861116 L60.6145702,26.6861116 Z M67.1763235,23.0415335 L67.1763235,15.3296518 C67.1763235,14.6746146 66.92533,14.3471009 66.4233354,14.3471009 C66.26198,14.3471009 66.08494,14.411842 65.8922099,14.5413261 C65.6994798,14.6708102 65.56726,14.7736342 65.4955465,14.8498013 C65.423833,14.9259685 65.3073003,15.0554506 65.1459449,15.2382517 L65.1459449,23.1900586 L65.2266222,23.2814587 C65.2714432,23.3423924 65.3028174,23.3804754 65.3207457,23.3957088 C65.3386741,23.4109422 65.3745303,23.4490252 65.4283155,23.5099589 C65.4821006,23.5708926 65.5224388,23.614688 65.5493314,23.6413465 C65.576224,23.668005 65.6165622,23.7079921 65.6703473,23.7613091 C65.7241325,23.8146261 65.7711938,23.8527091 65.8115326,23.8755592 C65.8518715,23.8984093 65.8989327,23.9288757 65.9527179,23.9669593 C66.006503,24.0050428 66.0580463,24.0317009 66.1073494,24.0469343 C66.1566524,24.0621678 66.2081957,24.077401 66.2619808,24.0926344 C66.315766,24.1078678 66.3695503,24.1154844 66.4233354,24.1154844 C66.638476,24.1154844 66.806552,24.0545516 66.9275685,23.9326842 C67.0485851,23.8108169 67.1202975,23.6832389 67.142708,23.5499464 C67.1651184,23.416654 67.1763235,23.2471847 67.1763235,23.0415335 L67.1763235,23.0415335 Z M76.1987343,25.3493855 C76.1987343,24.3515963 75.9611869,22.8987304 75.4860849,20.9907442 C75.0109829,19.082758 74.4596935,17.1233884 73.8322003,15.1125766 C73.2047071,13.1017648 72.8640731,11.9897416 72.8102879,11.7764737 L76.9382762,11.7764737 L78.5652683,20.0938809 L79.9905672,11.7764737 L84.1454478,11.7764737 L80.3132763,27.085987 C80.1788135,27.6039234 79.9726403,28.0552067 79.6947504,28.4398507 C79.4168606,28.8244946 79.1008777,29.1291585 78.7467922,29.3538515 C78.3927067,29.5785444 77.9669142,29.7594386 77.4694017,29.8965394 C76.9718892,30.0336402 76.4788662,30.1250394 75.990318,30.1707397 C75.5017697,30.2164399 74.9437573,30.2392897 74.3162641,30.2392897 L73.7380768,30.2392897 L73.7380768,27.5772624 C74.6344957,27.562029 75.2687025,27.3811348 75.6407164,27.0345744 C76.0127302,26.6880141 76.1987343,26.12629 76.1987343,25.3493855 L76.1987343,25.3493855 Z" id="ruby" fill="#B20F0F" filter="url(#filter-1)" sketch:type="MSShapeGroup"></path>
            <path d="M85.589173,22.8701583 L85.589173,16.4721528 C85.589173,14.8878768 86.0328937,13.6520839 86.9203483,12.764737 C87.807803,11.8773902 89.1613752,11.4337234 90.9811055,11.4337234 C92.8098,11.4337234 94.1656132,11.875486 95.0485858,12.7590245 C95.9315584,13.642563 96.373038,14.8802601 96.373038,16.4721528 L96.373038,17.7746039 L91.9223406,17.7746039 L91.9223406,16.0722774 C91.9223406,15.4781739 91.8618332,15.0421237 91.7408167,14.7641138 C91.6198001,14.4861038 91.3665656,14.3471009 90.9811055,14.3471009 C90.4073974,14.3471009 90.1205477,14.7241225 90.1205477,15.4781769 L90.1205477,22.8587333 C90.1205477,23.6965716 90.4073974,24.1154844 90.9811055,24.1154844 C91.196246,24.1154844 91.3688041,24.0774014 91.4987848,24.0012343 C91.6287655,23.9250672 91.7228881,23.795585 91.7811553,23.612784 C91.8394226,23.4299829 91.8775198,23.2414721 91.8954482,23.047246 C91.9133766,22.8530198 91.9223406,22.5807265 91.9223406,22.2303578 L91.9223406,20.6422814 L96.373038,20.6422814 L96.373038,22.8701583 C96.373038,23.6927632 96.1220445,24.4258606 95.62005,25.0694727 C95.1180554,25.7130848 94.4591974,26.1986429 93.6434562,26.5261615 C92.8277151,26.8536801 91.9402737,27.0174369 90.9811055,27.0174369 C89.5020144,27.0174369 88.2336007,26.6347029 87.1758264,25.8692234 C86.1180522,25.1037439 85.589173,24.1040656 85.589173,22.8701583 L85.589173,22.8701583 Z M104.440768,23.3157337 L104.440768,19.6483055 C102.952712,20.6689448 102.208696,21.7885846 102.208696,23.0072584 C102.208696,23.3119269 102.278167,23.5727953 102.417112,23.7898716 C102.556057,24.0069479 102.791363,24.1154844 103.123038,24.1154844 C103.311286,24.1154844 103.49729,24.0640724 103.681056,23.9612468 C103.864822,23.8584212 103.997042,23.7689262 104.07772,23.692759 C104.158397,23.6165919 104.279412,23.4909181 104.440768,23.3157337 L104.440768,23.3157337 Z M105.35511,26.6861116 L104.911385,25.1437353 C104.651424,25.836856 104.225631,26.3224141 103.633995,26.6004241 C103.042358,26.878434 102.307306,27.0174369 101.428815,27.0174369 C100.783394,27.0174369 100.218658,26.9108046 99.734592,26.6975367 C99.2505258,26.4842687 98.8717945,26.1967422 98.5983868,25.8349484 C98.324979,25.4731546 98.1232878,25.0847082 97.993307,24.6695974 C97.8633263,24.2544866 97.7983369,23.8184364 97.7983369,23.3614337 C97.7983369,22.8434974 97.8610853,22.3636518 97.9865839,21.9218825 C98.1120826,21.4801132 98.2711945,21.0897626 98.4639246,20.750819 C98.6566546,20.4118753 98.9255763,20.0862658 99.2706975,19.7739806 C99.6158188,19.4616955 99.9519708,19.1970187 100.279164,18.9799424 C100.606357,18.7628662 101.025426,18.5381765 101.536385,18.3058669 C102.047344,18.0735572 102.50451,17.8793339 102.907899,17.7231913 C103.311287,17.5670488 103.817756,17.3823463 104.427321,17.1690784 L104.427321,15.9123273 C104.427321,15.3867742 104.351127,14.9945194 104.198736,14.7355512 C104.046344,14.4765831 103.786387,14.3471009 103.418855,14.3471009 C103.167858,14.3471009 102.963926,14.3908963 102.807052,14.4784885 C102.650179,14.5660807 102.540369,14.697467 102.47762,14.8726514 C102.414871,15.0478357 102.374532,15.2058801 102.356604,15.3467893 C102.338676,15.4876984 102.329712,15.6762092 102.329712,15.9123273 L102.329712,16.757778 L97.9327991,16.757778 C97.9327991,15.0440179 98.4392681,13.7282508 99.4522215,12.8104371 C100.465175,11.8926233 101.93528,11.4337234 103.86258,11.4337234 C105.207209,11.4337234 106.385982,11.8488279 107.398935,12.6790495 C108.411888,13.509271 108.918357,14.4956203 108.918357,15.638127 L108.918357,22.7216332 C108.918357,23.9479237 109.111085,25.2694033 109.496545,26.6861116 L105.35511,26.6861116 Z M110.652919,23.0872335 L114.122043,22.0361326 C114.211685,22.2646339 114.283397,22.4417198 114.337182,22.5673956 C114.390967,22.6930713 114.482849,22.8758696 114.61283,23.115796 C114.742811,23.3557224 114.868307,23.5404249 114.989324,23.669909 C115.11034,23.7993931 115.267211,23.9193545 115.459941,24.0297968 C115.652671,24.1402391 115.856604,24.1954595 116.071744,24.1954595 C116.636488,24.1954595 116.918856,23.9136454 116.918856,23.3500087 C116.918856,23.1443575 116.86283,22.932997 116.750778,22.7159207 C116.638726,22.4988444 116.522193,22.3122378 116.401176,22.1560952 C116.28016,21.9999526 116.069505,21.7962086 115.769204,21.5448572 C115.468904,21.2935057 115.23808,21.1068991 115.076724,20.9850317 C114.915369,20.8631643 114.633001,20.6575162 114.229613,20.3680811 L113.490071,19.8311057 C112.530903,19.1227515 111.777922,18.4258329 111.231106,17.7403289 C110.684291,17.0548248 110.410887,16.2931651 110.410887,15.4553269 C110.410887,14.8079064 110.569999,14.2233326 110.888228,13.7015878 C111.206457,13.1798431 111.63449,12.7590261 112.172342,12.4391242 C112.710193,12.1192224 113.313026,11.8735871 113.980858,11.7022111 C114.64869,11.5308351 115.350127,11.4451484 116.08519,11.4451484 C116.739576,11.4451484 117.36706,11.5632056 117.967661,11.7993237 C118.568261,12.0354417 119.094899,12.3496264 119.547591,12.741887 C120.000282,13.1341476 120.39246,13.5759103 120.724135,14.0671882 C121.05581,14.558466 121.311285,15.0744905 121.490569,15.615277 L118.236585,16.5635528 C118.129015,16.3350515 118.039374,16.1465407 117.967661,15.9980148 C117.895947,15.849489 117.781655,15.6552657 117.624782,15.4153393 C117.467909,15.1754129 117.31552,14.9830939 117.167611,14.8383763 C117.019702,14.6936588 116.83818,14.5660808 116.623039,14.4556385 C116.407898,14.3451962 116.183797,14.2899759 115.950728,14.2899759 C115.636982,14.2899759 115.392711,14.3851833 115.217909,14.5756011 C115.043108,14.7660189 114.955708,14.9830919 114.955708,15.2268267 C114.955708,15.561962 115.173087,15.9370794 115.60785,16.3521902 C116.042613,16.7673009 116.640964,17.2452424 117.40292,17.7860289 L118.236585,18.4144044 C118.684794,18.7571565 119.07249,19.0789577 119.399683,19.3798178 C119.726875,19.6806779 120.054063,20.0215206 120.381256,20.4023562 C120.708449,20.7831917 120.959443,21.1830631 121.134244,21.6019822 C121.309046,22.0209013 121.396446,22.4398142 121.396446,22.8587333 C121.396446,24.0621737 120.8967,25.0561396 119.897193,25.8406609 C118.897686,26.6251822 117.689779,27.0174369 116.273437,27.0174369 C114.901917,27.0174369 113.718661,26.6556486 112.723636,25.932061 C111.728612,25.2084734 111.038379,24.2602071 110.652919,23.0872335 L110.652919,23.0872335 Z M123.373039,21.5677072 L123.373039,14.3471009 L122.082203,14.3471009 L122.082203,11.7764737 L123.373039,11.7764737 L123.373039,6.87514441 L127.904414,6.87514441 L127.904414,11.7764737 L130.082701,11.7764737 L130.082701,14.3471009 L127.904414,14.3471009 L127.904414,22.493133 C127.904414,22.9044354 127.994055,23.2110034 128.173338,23.4128463 C128.352622,23.6146891 128.670846,23.7156091 129.12802,23.7156091 C129.647943,23.7156091 130.087181,23.6927593 130.445749,23.647059 L130.445749,26.6289866 C129.854112,26.7813208 128.899441,26.8574868 127.581705,26.8574868 C127.052818,26.8574868 126.575482,26.8041706 126.149683,26.6975367 C125.723884,26.5909027 125.365322,26.4480915 125.073986,26.2690988 C124.78265,26.0901061 124.531656,25.8635123 124.320998,25.5893107 C124.110339,25.3151091 123.944504,25.0351991 123.823488,24.7495725 C123.702471,24.4639458 123.608348,24.1307197 123.541117,23.7498841 C123.473886,23.3690485 123.429065,23.0148768 123.406655,22.6873582 C123.384244,22.3598396 123.373039,21.9866263 123.373039,21.5677072 L123.373039,21.5677072 Z M131.29286,23.0872335 L134.761984,22.0361326 C134.851626,22.2646339 134.923338,22.4417198 134.977124,22.5673956 C135.030909,22.6930713 135.12279,22.8758696 135.252771,23.115796 C135.382752,23.3557224 135.508249,23.5404249 135.629265,23.669909 C135.750282,23.7993931 135.907153,23.9193545 136.099883,24.0297968 C136.292613,24.1402391 136.496545,24.1954595 136.711685,24.1954595 C137.276429,24.1954595 137.558797,23.9136454 137.558797,23.3500087 C137.558797,23.1443575 137.502772,22.932997 137.390719,22.7159207 C137.278667,22.4988444 137.162134,22.3122378 137.041118,22.1560952 C136.920101,21.9999526 136.709446,21.7962086 136.409146,21.5448572 C136.108845,21.2935057 135.878021,21.1068991 135.716665,20.9850317 C135.55531,20.8631643 135.272942,20.6575162 134.869554,20.3680811 L134.130012,19.8311057 C133.170844,19.1227515 132.417863,18.4258329 131.871048,17.7403289 C131.324232,17.0548248 131.050829,16.2931651 131.050829,15.4553269 C131.050829,14.8079064 131.209941,14.2233326 131.528169,13.7015878 C131.846398,13.1798431 132.274432,12.7590261 132.812283,12.4391242 C133.350134,12.1192224 133.952967,11.8735871 134.620799,11.7022111 C135.288631,11.5308351 135.990068,11.4451484 136.725132,11.4451484 C137.379517,11.4451484 138.007001,11.5632056 138.607602,11.7993237 C139.208202,12.0354417 139.734841,12.3496264 140.187532,12.741887 C140.640224,13.1341476 141.032401,13.5759103 141.364076,14.0671882 C141.695751,14.558466 141.951227,15.0744905 142.13051,15.615277 L138.876526,16.5635528 C138.768956,16.3350515 138.679315,16.1465407 138.607602,15.9980148 C138.535888,15.849489 138.421597,15.6552657 138.264723,15.4153393 C138.10785,15.1754129 137.955461,14.9830939 137.807552,14.8383763 C137.659643,14.6936588 137.478121,14.5660808 137.26298,14.4556385 C137.04784,14.3451962 136.823738,14.2899759 136.590669,14.2899759 C136.276923,14.2899759 136.032652,14.3851833 135.857851,14.5756011 C135.683049,14.7660189 135.59565,14.9830919 135.59565,15.2268267 C135.59565,15.561962 135.813028,15.9370794 136.247791,16.3521902 C136.682554,16.7673009 137.280905,17.2452424 138.042861,17.7860289 L138.876526,18.4144044 C139.324736,18.7571565 139.712431,19.0789577 140.039624,19.3798178 C140.366817,19.6806779 140.694005,20.0215206 141.021198,20.4023562 C141.34839,20.7831917 141.599384,21.1830631 141.774186,21.6019822 C141.948987,22.0209013 142.036387,22.4398142 142.036387,22.8587333 C142.036387,24.0621737 141.536641,25.0561396 140.537134,25.8406609 C139.537627,26.6251822 138.32972,27.0174369 136.913379,27.0174369 C135.541858,27.0174369 134.358603,26.6556486 133.363578,25.932061 C132.368553,25.2084734 131.678321,24.2602071 131.29286,23.0872335 L131.29286,23.0872335 Z" id="casts" fill="#202020" filter="url(#filter-2)" sketch:type="MSShapeGroup"></path>
        </g>
    </g>
</svg>